<svg height="512pt" viewBox="0 0 512 512" width="512pt" xmlns="http://www.w3.org/2000/svg"><path d="m497 302h-106v-46c0-5.070312-.285156-10.074219-.824219-15h30.824219c8.285156 0 15-6.714844 15-15s-6.714844-15-15-15h-37.605469c-16.886719-48.375-60.195312-84.316406-112.394531-90.15625v-30.84375h15c41.355469 0 75-33.644531 75-75 0-8.285156-6.714844-15-15-15h-90c-8.285156 0-15 6.714844-15 15v105.84375c-52.199219 5.839844-95.507812 41.78125-112.394531 90.15625h-37.605469c-8.285156 0-15 6.714844-15 15s6.714844 14.898438 15 14.898438h30.824219c-.539063 4.929687-.824219 10.03125-.824219 15.101562v46h-106c-8.285156 0-15 6.714844-15 15v180c0 8.285156 6.714844 15 15 15h482c8.285156 0 15-6.714844 15-15v-180c0-8.285156-6.714844-15-15-15zm-226-272.101562h56c-6.035156 16.882812-22.304688 29.101562-41.371094 29.101562h-14.628906zm-15 120.101562c41.96875 0 78.257812 24.988281 95.054688 61h-190.109376c16.796876-36.011719 53.085938-61 95.054688-61zm-105 106c0-5.09375.363281-10.097656 1.054688-15h207.890624c.691407 4.902344 1.054688 9.90625 1.054688 15v46h-30v-16c0-8.285156-6.714844-15-15-15s-15 6.714844-15 15v16h-30v-16c0-8.285156-6.714844-15-15-15s-15 6.714844-15 15v16h-30v-16c0-8.285156-6.714844-15-15-15s-15 6.714844-15 15v16h-30zm-30 226h-30v-30h30zm0-60h-30v-30h30zm120 60h-30v-90h30zm60 0h-30v-90h30zm120 0h-30v-30h30zm0-60h-30v-30h30zm61 60h-31v-105c0-8.285156-6.714844-15-15-15h-60c-8.285156 0-15 6.714844-15 15v105h-30v-105c0-8.285156-6.714844-15-15-15h-120c-8.285156 0-15 6.714844-15 15v105h-30v-105c0-8.285156-6.714844-15-15-15h-60c-8.285156 0-15 6.714844-15 15v105h-31v-150h452zm0 0"/></svg>